<svg width="28" height="28" viewBox="0 0 28 28" fill="none" xmlns="http://www.w3.org/2000/svg">
<path d="M3.5 14.5245C3.5 12.1217 3.5 10.9202 4.04516 9.92428C4.59032 8.92832 5.5863 8.31019 7.57823 7.07394L9.67823 5.77062C11.7839 4.46381 12.8367 3.8104 14 3.8104C15.1633 3.8104 16.2161 4.46381 18.3218 5.77062L20.4218 7.07393C22.4138 8.31019 23.4097 8.92832 23.9548 9.92428C24.5 10.9202 24.5 12.1217 24.5 14.5245V16.1217C24.5 20.2175 24.5 22.2655 23.2698 23.5379C22.0397 24.8104 20.0598 24.8104 16.1 24.8104H11.9C7.9402 24.8104 5.96031 24.8104 4.73015 23.5379C3.5 22.2655 3.5 20.2175 3.5 16.1217V14.5245Z" stroke="white" stroke-width="1.5"/>
<path d="M17.15 19.0924H10.85" stroke="white" stroke-width="1.5" stroke-linecap="round"/>
</svg>
