<svg width="28" height="28" viewBox="0 0 28 28" fill="none" xmlns="http://www.w3.org/2000/svg">
	<path fill-rule="evenodd" clip-rule="evenodd" d="M4.04516 9.92428C3.5 10.9202 3.5 12.1217 3.5 14.5245V16.1217C3.5 20.2175 3.5 22.2655 4.73015 23.5379C5.96031 24.8104 7.9402 24.8104 11.9 24.8104H16.1C20.0598 24.8104 22.0397 24.8104 23.2698 23.5379C24.5 22.2655 24.5 20.2175 24.5 16.1217V14.5245C24.5 12.1217 24.5 10.9202 23.9548 9.92428C23.4097 8.92832 22.4138 8.31019 20.4218 7.07393L18.3218 5.77062L18.3218 5.77061C16.2161 4.4638 15.1633 3.8104 14 3.8104C12.8367 3.8104 11.7839 4.46381 9.67823 5.77062L7.57823 7.07394C5.5863 8.31019 4.59032 8.92832 4.04516 9.92428ZM10.85 18.3424C10.4358 18.3424 10.1 18.6782 10.1 19.0924C10.1 19.5067 10.4358 19.8424 10.85 19.8424H17.15C17.5642 19.8424 17.9 19.5067 17.9 19.0924C17.9 18.6782 17.5642 18.3424 17.15 18.3424H10.85Z" fill="white"/>
</svg>
