<svg width="28" height="28" viewBox="0 0 28 28" fill="none" xmlns="http://www.w3.org/2000/svg">
	<path d="M3.5 11.6667C3.5 7.26689 3.5 5.06701 4.86683 3.70017C6.23367 2.33334 8.43355 2.33334 12.8333 2.33334H15.1667C19.5664 2.33334 21.7664 2.33334 23.1331 3.70017C24.5 5.06701 24.5 7.26689 24.5 11.6667V16.3333C24.5 20.7331 24.5 22.9331 23.1331 24.2998C21.7664 25.6667 19.5664 25.6667 15.1667 25.6667H12.8333C8.43355 25.6667 6.23367 25.6667 4.86683 24.2998C3.5 22.9331 3.5 20.7331 3.5 16.3333V11.6667Z" stroke="white" stroke-width="1.5"/>
	<path d="M9.33334 14H18.6667" stroke="white" stroke-width="1.5" stroke-linecap="round"/>
	<path d="M9.33334 9.33334H18.6667" stroke="white" stroke-width="1.5" stroke-linecap="round"/>
	<path d="M9.33334 18.6667H15.1667" stroke="white" stroke-width="1.5" stroke-linecap="round"/>
</svg>
