<svg width="28" height="28" viewBox="0 0 28 28" fill="none" xmlns="http://www.w3.org/2000/svg">
	<path fill-rule="evenodd" clip-rule="evenodd" d="M4.86683 3.70016C3.5 5.06701 3.5 7.26689 3.5 11.6667V16.3333C3.5 20.7331 3.5 22.9331 4.86683 24.2998C6.23367 25.6667 8.43355 25.6667 12.8333 25.6667H15.1667C19.5664 25.6667 21.7664 25.6667 23.1331 24.2998C24.5 22.9331 24.5 20.7331 24.5 16.3333V11.6667C24.5 7.26689 24.5 5.06701 23.1331 3.70016C21.7664 2.33333 19.5664 2.33333 15.1667 2.33333H12.8333C8.43355 2.33333 6.23367 2.33333 4.86683 3.70016ZM9.33334 13.25C8.91913 13.25 8.58334 13.5858 8.58334 14C8.58334 14.4142 8.91913 14.75 9.33334 14.75H18.6667C19.0809 14.75 19.4167 14.4142 19.4167 14C19.4167 13.5858 19.0809 13.25 18.6667 13.25H9.33334ZM8.58334 9.33333C8.58334 8.91912 8.91913 8.58333 9.33334 8.58333H18.6667C19.0809 8.58333 19.4167 8.91912 19.4167 9.33333C19.4167 9.74755 19.0809 10.0833 18.6667 10.0833H9.33334C8.91913 10.0833 8.58334 9.74755 8.58334 9.33333ZM9.33334 17.9167C8.91913 17.9167 8.58334 18.2525 8.58334 18.6667C8.58334 19.0809 8.91913 19.4167 9.33334 19.4167H15.1667C15.5809 19.4167 15.9167 19.0809 15.9167 18.6667C15.9167 18.2525 15.5809 17.9167 15.1667 17.9167H9.33334Z" fill="white"/>
</svg>
