<svg width="28" height="28" viewBox="0 0 28 28" fill="none" xmlns="http://www.w3.org/2000/svg">
	<path d="M3.5 11.6667C3.5 7.26689 3.5 5.06701 4.86683 3.70016C6.23367 2.33333 8.43355 2.33333 12.8333 2.33333H15.1667C19.5664 2.33333 21.7664 2.33333 23.1331 3.70016C24.5 5.06701 24.5 7.26689 24.5 11.6667V16.3333C24.5 20.7331 24.5 22.9331 23.1331 24.2998C21.7664 25.6667 19.5664 25.6667 15.1667 25.6667H12.8333C8.43355 25.6667 6.23367 25.6667 4.86683 24.2998C3.5 22.9331 3.5 20.7331 3.5 16.3333V11.6667Z" fill="white"/>
	<path d="M9.81958 12.2347C11.3236 10.9669 13.5757 10.0849 15.182 11.2425C17.8464 13.1624 17.3554 14.3844 20.1902 14.1009M12 17.3333L11.3328 18.1339C10.8413 18.7237 10.5956 19.0186 10.2596 19.176C9.92368 19.3333 9.53982 19.3333 8.77209 19.3333H8M15.3334 11.6667L13.8529 13.5171C13.2953 14.214 13.0164 14.5625 12.9719 14.942C12.9469 15.1553 12.9739 15.3715 13.0504 15.5723C13.1865 15.9293 13.5423 16.1987 14.2538 16.7377C14.7957 17.1483 15.0667 17.3536 15.2503 17.6219C15.3551 17.775 15.438 17.9419 15.4968 18.1178C15.5998 18.4263 15.5998 18.7662 15.5998 19.4461V20.6665M20 9C20 9.92047 19.2538 10.6667 18.3334 10.6667C17.4129 10.6667 16.6667 9.92047 16.6667 9C16.6667 8.07952 17.4129 7.33333 18.3334 7.33333C19.2538 7.33333 20 8.07952 20 9Z" stroke="black" stroke-linecap="round"/>
</svg>
