<svg width="28" height="28" viewBox="0 0 28 28" fill="none" xmlns="http://www.w3.org/2000/svg">
	<path d="M3.5 11.6667C3.5 7.26689 3.5 5.06701 4.86683 3.70017C6.23367 2.33334 8.43355 2.33334 12.8333 2.33334H15.1667C19.5664 2.33334 21.7664 2.33334 23.1331 3.70017C24.5 5.06701 24.5 7.26689 24.5 11.6667V16.3333C24.5 20.7331 24.5 22.9331 23.1331 24.2998C21.7664 25.6667 19.5664 25.6667 15.1667 25.6667H12.8333C8.43355 25.6667 6.23367 25.6667 4.86683 24.2998C3.5 22.9331 3.5 20.7331 3.5 16.3333V11.6667Z" stroke="white" stroke-width="1.5"/>
	<path d="M14.0002 16.2434C10.7697 16.2434 10.1974 13.0238 10.096 10.4703C10.0678 9.75997 10.0537 9.40481 10.3205 9.07621C10.5873 8.74761 10.9066 8.69373 11.5453 8.58597C12.1757 8.47961 12.9998 8.3915 14.0002 8.3915C15.0004 8.3915 15.8245 8.47961 16.4549 8.58597C17.0936 8.69373 17.4129 8.74761 17.6797 9.07621C17.9466 9.40481 17.9324 9.75997 17.9042 10.4703C17.8029 13.0238 17.2306 16.2434 14.0002 16.2434Z" stroke="white"/>
	<path d="M17.926 10.0741L18.458 10.2514C19.0133 10.4365 19.2909 10.529 19.4497 10.7494C19.6085 10.9697 19.6085 11.2623 19.6085 11.8477V11.8883C19.6085 12.3711 19.6085 12.6124 19.4923 12.8099C19.3761 13.0074 19.1651 13.1246 18.7431 13.3591L17.0847 14.2804" stroke="white"/>
	<path d="M10.0741 10.0741L9.54202 10.2514C8.98675 10.4365 8.70911 10.529 8.55032 10.7494C8.39152 10.9697 8.39152 11.2623 8.39154 11.8477V11.8883C8.39156 12.3711 8.39156 12.6124 8.50777 12.8099C8.62396 13.0074 8.83497 13.1246 9.25696 13.3591L10.9153 14.2804" stroke="white"/>
	<path d="M14 16.8043V17.926" stroke="white" stroke-linecap="round"/>
	<path d="M15.963 19.6085H12.0371L12.2273 18.6572C12.2798 18.3951 12.5099 18.2064 12.7773 18.2064H15.2228C15.4902 18.2064 15.7204 18.3951 15.7728 18.6572L15.963 19.6085Z" stroke="white" stroke-linecap="round" stroke-linejoin="round"/>
	<path d="M17.3652 19.6085H10.6349" stroke="white" stroke-linecap="round"/>
</svg>
